<svg width="255" height="400" viewBox="0 0 255 400" fill="none" xmlns="http://www.w3.org/2000/svg">
<path fill-rule="evenodd" clip-rule="evenodd" d="M129.884 0H0V400H215.578C214.961 393.808 215.662 387.386 217.869 381.13C218.779 378.55 219.906 376.11 221.222 373.821C202.98 363.612 194.178 341.466 201.369 321.082C204.741 311.524 211.094 303.871 219.015 298.798C211.91 287.803 209.794 273.753 214.486 260.453C219.809 245.365 232.56 235.023 247.185 232.087C241.938 221.78 240.759 209.426 244.91 197.659C247.015 191.695 250.279 186.472 254.362 182.155C251.158 180.292 248.141 177.989 245.397 175.245C238.231 168.079 234.069 159.045 232.911 149.71C219.927 151.374 206.339 147.219 196.367 137.247C185.053 125.933 181.228 109.967 184.89 95.507C173.329 95.7925 161.676 91.5236 152.852 82.7003C137.277 67.1248 135.893 42.7314 148.703 25.5897C146.044 23.8993 143.528 21.8939 141.207 19.5735C135.581 13.9472 131.807 7.17016 129.884 0Z" fill="white"/>
</svg>
