<svg width="185" height="262" viewBox="0 0 185 262" fill="none" xmlns="http://www.w3.org/2000/svg">
<path fill-rule="evenodd" clip-rule="evenodd" d="M129.884 0H0V253.77C3.59379 254.583 7.14296 255.867 10.5652 257.648C12.9915 258.91 15.2501 260.368 17.3317 261.993C27.3927 248.781 44.078 242.523 60.1267 245.511C61.5667 239.197 64.4359 233.107 68.7862 227.734C75.164 219.857 83.7128 214.773 92.8756 212.646C89.8629 199.906 92.5735 185.959 101.448 174.998C111.517 162.563 126.995 157.089 141.759 159.219C140.266 147.751 143.292 135.715 151.145 126.017C159.455 115.754 171.45 110.232 183.687 109.815C183.304 105.027 183.705 100.188 184.89 95.507C173.329 95.7925 161.676 91.5236 152.852 82.7003C137.277 67.1248 135.893 42.7314 148.703 25.5897C146.044 23.8993 143.528 21.8939 141.207 19.5735C135.581 13.9472 131.807 7.17016 129.884 0Z" fill="white"/>
</svg>
