<svg width="255" height="321" viewBox="0 0 255 321" fill="none" xmlns="http://www.w3.org/2000/svg">
<path fill-rule="evenodd" clip-rule="evenodd" d="M129.884 0H0V253.77C3.59379 254.583 7.14296 255.867 10.5652 257.648C12.9915 258.91 15.2501 260.368 17.3317 261.993C29.9963 245.362 53.1573 239.75 72.3325 249.728C81.3234 254.406 88.0107 261.768 91.9231 270.323C103.805 264.829 118.013 264.703 130.524 271.212C144.718 278.598 153.17 292.673 154.028 307.565C164.968 303.814 177.365 304.378 188.435 310.138C193.597 312.824 198 316.395 201.554 320.568C204.97 311.25 211.236 303.78 219.015 298.798C211.91 287.803 209.794 273.753 214.486 260.453C219.809 245.365 232.56 235.023 247.185 232.087C241.938 221.78 240.759 209.426 244.91 197.659C247.015 191.695 250.279 186.472 254.362 182.155C251.158 180.292 248.141 177.989 245.397 175.245C238.231 168.079 234.069 159.045 232.911 149.71C219.927 151.374 206.339 147.219 196.367 137.247C185.053 125.933 181.228 109.967 184.89 95.507C173.329 95.7925 161.676 91.5236 152.852 82.7003C137.277 67.1248 135.893 42.7314 148.703 25.5897C146.044 23.8993 143.528 21.8939 141.207 19.5735C135.581 13.9472 131.807 7.17016 129.884 0Z" fill="white"/>
</svg>
