<svg width="43" height="46" viewBox="0 0 43 46" fill="none" xmlns="http://www.w3.org/2000/svg">
<circle cx="14.8207" cy="30.9888" r="14.3207" fill="#7A58FF" stroke="#7A58FF"/>
<rect x="25.8949" y="16.8752" width="5.73669" height="7.08403" rx="2.5" transform="rotate(44.6417 25.8949 16.8752)" fill="#7A58FF" stroke="#7A58FF"/>
<path d="M29.7323 10.0394L28.6131 16.3813C28.4755 17.1612 29.256 17.7841 29.986 17.4767L37.9223 14.1351C38.8133 13.7599 38.6443 12.4498 37.6873 12.3131C37.0432 12.2211 36.6786 11.5251 36.9695 10.9432L39.0116 6.85923C39.5351 5.81208 38.1419 4.87253 37.3673 5.7504L33.3823 10.2668C32.8964 10.8174 32.0026 10.674 31.7133 9.99906L31.6362 9.81926C31.2448 8.90583 29.905 9.06074 29.7323 10.0394Z" fill="#7A58FF" stroke="#7A58FF"/>
</svg>
