<svg width="300" height="300" viewBox="0 0 300 300" fill="none" xmlns="http://www.w3.org/2000/svg">
<circle cx="150" cy="150" r="55" fill="url(#paint0_radial_95_14)"/>
<g filter="url(#filter0_d_95_14)">
<path d="M116.708 119.5C107.682 121.38 107.208 107.862 118.708 101.5C165.708 75.5001 220.552 116 204.708 167C200.996 178.947 194.208 174 191.208 163C188.208 152 182.258 151 173.708 160.5C165.158 170 155.208 158 158.708 150.5C162.674 142 152.986 133.042 143.708 140C135.708 146 129.425 137.5 132.208 129.5C136.208 118 128.708 117 116.708 119.5Z" fill="url(#paint1_radial_95_14)"/>
</g>
<g filter="url(#filter1_i_95_14)">
<rect x="189.992" y="137" width="10.2505" height="21.4773" rx="5.12527" transform="rotate(38.2079 189.992 137)" fill="url(#paint2_radial_95_14)"/>
</g>
<g filter="url(#filter2_i_95_14)">
<path d="M152.862 125.348C151.12 123.116 151.517 119.896 153.748 118.154V118.154C155.979 116.412 159.2 116.809 160.942 119.04L167.85 127.89C169.592 130.121 169.195 133.342 166.964 135.084V135.084C164.732 136.825 161.512 136.429 159.77 134.197L152.862 125.348Z" fill="url(#paint3_radial_95_14)"/>
</g>
<g filter="url(#filter3_i_95_14)">
<rect x="179.438" y="131.729" width="10.2505" height="21.4773" rx="5.12527" transform="rotate(-99.7174 179.438 131.729)" fill="url(#paint4_radial_95_14)"/>
</g>
<g filter="url(#filter4_i_95_14)">
<rect x="142.331" y="95" width="10.2505" height="21.4773" rx="5.12527" transform="rotate(35.998 142.331 95)" fill="url(#paint5_radial_95_14)"/>
</g>
<path fill-rule="evenodd" clip-rule="evenodd" d="M178.562 89.4341C177.158 88.5549 175.307 88.9805 174.427 90.3848L168.458 99.9186C174.187 106.817 178.839 109.674 187.095 112.231L193.354 102.235C194.233 100.831 193.808 98.9797 192.403 98.1004L178.562 89.4341Z" fill="url(#paint6_linear_95_14)"/>
<path d="M171.449 95.2808C169.495 93.6259 167.733 97.0116 166.854 98.6545C166.673 105.152 180.432 114.037 187.957 113.246C189.498 111.788 193.477 108.123 190.65 106.318C187.823 104.513 185.597 108.179 183.125 107.11C180.654 106.04 183.764 102.125 180.807 100.543C177.85 98.9599 175.253 102.389 173.296 100.834C171.338 99.2792 173.893 97.3494 171.449 95.2808Z" fill="url(#paint7_linear_95_14)"/>
<defs>
<filter id="filter0_d_95_14" x="106" y="93.3954" width="101.494" height="84.5272" filterUnits="userSpaceOnUse" color-interpolation-filters="sRGB">
<feFlood flood-opacity="0" result="BackgroundImageFix"/>
<feColorMatrix in="SourceAlpha" type="matrix" values="0 0 0 0 0 0 0 0 0 0 0 0 0 0 0 0 0 0 127 0" result="hardAlpha"/>
<feOffset dx="-2" dy="2"/>
<feGaussianBlur stdDeviation="1"/>
<feComposite in2="hardAlpha" operator="out"/>
<feColorMatrix type="matrix" values="0 0 0 0 0.683333 0 0 0 0 0 0 0 0 0 0.225233 0 0 0 0.46 0"/>
<feBlend mode="normal" in2="BackgroundImageFix" result="effect1_dropShadow_95_14"/>
<feBlend mode="normal" in="SourceGraphic" in2="effect1_dropShadow_95_14" result="shape"/>
</filter>
<filter id="filter1_i_95_14" x="178.78" y="136.072" width="17.1949" height="22.0726" filterUnits="userSpaceOnUse" color-interpolation-filters="sRGB">
<feFlood flood-opacity="0" result="BackgroundImageFix"/>
<feBlend mode="normal" in="SourceGraphic" in2="BackgroundImageFix" result="shape"/>
<feColorMatrix in="SourceAlpha" type="matrix" values="0 0 0 0 0 0 0 0 0 0 0 0 0 0 0 0 0 0 127 0" result="hardAlpha"/>
<feOffset dy="-3"/>
<feGaussianBlur stdDeviation="3.5"/>
<feComposite in2="hardAlpha" operator="arithmetic" k2="-1" k3="1"/>
<feColorMatrix type="matrix" values="0 0 0 0 1 0 0 0 0 0.35 0 0 0 0 0.545 0 0 0 0.46 0"/>
<feBlend mode="normal" in2="shape" result="effect1_innerShadow_95_14"/>
</filter>
<filter id="filter2_i_95_14" x="151.776" y="114.068" width="17.1592" height="22.1006" filterUnits="userSpaceOnUse" color-interpolation-filters="sRGB">
<feFlood flood-opacity="0" result="BackgroundImageFix"/>
<feBlend mode="normal" in="SourceGraphic" in2="BackgroundImageFix" result="shape"/>
<feColorMatrix in="SourceAlpha" type="matrix" values="0 0 0 0 0 0 0 0 0 0 0 0 0 0 0 0 0 0 127 0" result="hardAlpha"/>
<feOffset dy="-3"/>
<feGaussianBlur stdDeviation="3.5"/>
<feComposite in2="hardAlpha" operator="arithmetic" k2="-1" k3="1"/>
<feColorMatrix type="matrix" values="0 0 0 0 1 0 0 0 0 0.35 0 0 0 0 0.545 0 0 0 0.46 0"/>
<feBlend mode="normal" in2="shape" result="effect1_innerShadow_95_14"/>
</filter>
<filter id="filter3_i_95_14" x="178.499" y="115.791" width="21.3179" height="15.1471" filterUnits="userSpaceOnUse" color-interpolation-filters="sRGB">
<feFlood flood-opacity="0" result="BackgroundImageFix"/>
<feBlend mode="normal" in="SourceGraphic" in2="BackgroundImageFix" result="shape"/>
<feColorMatrix in="SourceAlpha" type="matrix" values="0 0 0 0 0 0 0 0 0 0 0 0 0 0 0 0 0 0 127 0" result="hardAlpha"/>
<feOffset dy="-3"/>
<feGaussianBlur stdDeviation="3.5"/>
<feComposite in2="hardAlpha" operator="arithmetic" k2="-1" k3="1"/>
<feColorMatrix type="matrix" values="0 0 0 0 1 0 0 0 0 0.35 0 0 0 0 0.545 0 0 0 0.46 0"/>
<feBlend mode="normal" in2="shape" result="effect1_innerShadow_95_14"/>
</filter>
<filter id="filter4_i_95_14" x="131.741" y="94.0333" width="16.8499" height="22.3341" filterUnits="userSpaceOnUse" color-interpolation-filters="sRGB">
<feFlood flood-opacity="0" result="BackgroundImageFix"/>
<feBlend mode="normal" in="SourceGraphic" in2="BackgroundImageFix" result="shape"/>
<feColorMatrix in="SourceAlpha" type="matrix" values="0 0 0 0 0 0 0 0 0 0 0 0 0 0 0 0 0 0 127 0" result="hardAlpha"/>
<feOffset dy="-3"/>
<feGaussianBlur stdDeviation="3.5"/>
<feComposite in2="hardAlpha" operator="arithmetic" k2="-1" k3="1"/>
<feColorMatrix type="matrix" values="0 0 0 0 1 0 0 0 0 0.35 0 0 0 0 0.545 0 0 0 0.46 0"/>
<feBlend mode="normal" in2="shape" result="effect1_innerShadow_95_14"/>
</filter>
<radialGradient id="paint0_radial_95_14" cx="0" cy="0" r="1" gradientUnits="userSpaceOnUse" gradientTransform="translate(172.94 112.818) rotate(119.501) scale(90.7443)">
<stop stop-color="#FAA258"/>
<stop offset="1" stop-color="#A95D0A"/>
</radialGradient>
<radialGradient id="paint1_radial_95_14" cx="0" cy="0" r="1" gradientUnits="userSpaceOnUse" gradientTransform="translate(173.708 109) rotate(127.875) scale(51.3079 61.5673)">
<stop stop-color="#FF7BA6"/>
<stop offset="0.364583" stop-color="#EB4C80"/>
<stop offset="1" stop-color="#DB2561"/>
</radialGradient>
<radialGradient id="paint2_radial_95_14" cx="0" cy="0" r="1" gradientUnits="userSpaceOnUse" gradientTransform="translate(192.174 139.941) rotate(71.446) scale(14.5129 9.6575)">
<stop stop-color="#9E86FF"/>
<stop offset="1" stop-color="#3B0CF5"/>
</radialGradient>
<radialGradient id="paint3_radial_95_14" cx="0" cy="0" r="1" gradientUnits="userSpaceOnUse" gradientTransform="translate(159.337 120.369) rotate(69.5901) scale(11.1976 5.34429)">
<stop stop-color="#D3FFF2"/>
<stop offset="1" stop-color="#66D6B4"/>
</radialGradient>
<radialGradient id="paint4_radial_95_14" cx="0" cy="0" r="1" gradientUnits="userSpaceOnUse" gradientTransform="translate(188.786 138.867) rotate(170.584) scale(12.6582 8.84494)">
<stop stop-color="#FFEB3A"/>
<stop offset="1" stop-color="#FFC700"/>
</radialGradient>
<radialGradient id="paint5_radial_95_14" cx="0" cy="0" r="1" gradientUnits="userSpaceOnUse" gradientTransform="translate(146.43 96.8597) rotate(81.3259) scale(16.4827 4.9448)">
<stop stop-color="#85FF3A"/>
<stop offset="1" stop-color="#00DC58"/>
</radialGradient>
<linearGradient id="paint6_linear_95_14" x1="186.208" y1="95.5001" x2="180.945" y2="105.129" gradientUnits="userSpaceOnUse">
<stop stop-color="#D48234"/>
<stop offset="1" stop-color="#AE620F"/>
</linearGradient>
<linearGradient id="paint7_linear_95_14" x1="184.875" y1="98.1546" x2="177.017" y2="110.941" gradientUnits="userSpaceOnUse">
<stop stop-color="#74F243"/>
<stop offset="1" stop-color="#53B369"/>
</linearGradient>
</defs>
</svg>
