<svg width="36" height="34" viewBox="0 0 36 34" fill="none" xmlns="http://www.w3.org/2000/svg">
<path d="M12.1117 2.68098L12.4583 10.9992C12.4813 11.5517 12.0516 12.0179 11.4991 12.04L3.48056 12.3608C2.47695 12.4009 2.15231 13.7299 3.02439 14.2282L9.79691 18.0982C10.2069 18.3325 10.3971 18.8216 10.2532 19.2713L7.39962 28.1887C7.10824 29.0993 8.13828 29.8603 8.92311 29.3144L17.2367 23.531C17.667 23.2317 18.2553 23.3153 18.585 23.7227L24.1717 30.6239C24.814 31.4173 26.0926 30.8516 25.9373 29.8426L24.6372 21.3919C24.5593 20.8852 24.8771 20.4016 25.3732 20.2722L33.3476 18.1919C34.2502 17.9565 34.3673 16.7225 33.5251 16.3215L26.2641 12.8638C25.8231 12.6538 25.5983 12.1559 25.7325 11.6863L27.6705 4.90319C27.9351 3.97728 26.8665 3.24916 26.1015 3.83411L20.717 7.95169C20.3097 8.26317 19.7328 8.21609 19.3814 7.8427L13.839 1.95398C13.2044 1.27966 12.0732 1.75576 12.1117 2.68098Z" fill="#E3DCFF"/>
<path d="M8.92815 11.5704L10.0102 14.2755C10.3073 15.0184 10.1332 15.8668 9.56747 16.4325L7.91421 18.0858C6.65428 19.3457 7.54662 21.5 9.32843 21.5H13.085C13.9329 21.5 14.6887 22.0347 14.971 22.8344L16.1405 26.1481C16.6942 27.7168 18.8093 27.9633 19.7089 26.564L21.3057 24.0799C21.7288 23.4219 22.4966 23.0709 23.2709 23.1816L25.5754 23.5108C27.0985 23.7284 28.2866 22.2166 27.7152 20.7881L26.3991 17.4977C26.1499 16.8747 26.2297 16.1682 26.6117 15.6165L27.8927 13.7661C28.8862 12.331 27.6934 10.4009 25.9655 10.6478L25.117 10.769C24.176 10.9034 23.2703 10.357 22.9506 9.46178L22.1779 7.29813C21.6573 5.84031 19.749 5.50122 18.758 6.69043L16.7913 9.05043C16.3063 9.63239 15.5342 9.8904 14.7968 9.71689L11.2432 8.88075C9.66737 8.50997 8.32692 10.0673 8.92815 11.5704Z" fill="#E3DCFF"/>
<path d="M17.1177 13.0588L16.7291 12.8645C15.7978 12.3989 14.7918 13.3475 15.2019 14.3045C15.382 14.7246 15.2881 15.2119 14.9649 15.5351L14.6687 15.8313C13.7143 16.7857 14.1659 18.4165 15.4754 18.7439L15.7112 18.8028C16.2144 18.9286 16.643 19.2573 16.8949 19.7108L16.9571 19.8227C17.7753 21.2956 19.9366 21.1586 20.5623 19.5942L20.7439 19.1404C20.907 18.7324 21.2344 18.4121 21.6458 18.2578L21.773 18.2101C23.0017 17.7493 23.0749 16.0374 21.9012 15.4506C21.3605 15.1803 21.036 14.6039 21.0907 14.0019L21.1153 13.7313C21.2364 12.3997 19.5827 11.6913 18.7022 12.6975L18.6496 12.7576C18.267 13.1949 17.6374 13.3187 17.1177 13.0588Z" fill="#7A58FF"/>
</svg>
