<svg width="20" height="20" viewBox="0 0 20 20" fill="none" xmlns="http://www.w3.org/2000/svg">
<path fill-rule="evenodd" clip-rule="evenodd" d="M10 20C11.1046 20 12 19.1046 12 18V16.7101C12.6339 16.5215 13.2301 16.2455 13.7747 15.8961L14.7279 16.8492C15.509 17.6303 16.7753 17.6303 17.5563 16.8492C18.3374 16.0682 18.3374 14.8019 17.5563 14.0208L16.3924 12.8569C16.5162 12.5803 16.6226 12.2942 16.7101 12H18C19.1046 12 20 11.1046 20 10C20 8.89543 19.1046 8 18 8H16.7101C16.513 7.3375 16.2203 6.7161 15.8482 6.15176L16.7279 5.27208C17.509 4.49103 17.509 3.2247 16.7279 2.44365C15.9469 1.6626 14.6805 1.6626 13.8995 2.44365L12.7726 3.57055C12.5223 3.46247 12.2644 3.36857 12 3.28988V2C12 0.895432 11.1046 0 10 0C8.89543 0 8 0.895431 8 2V3.28988C7.70581 3.37743 7.41972 3.48381 7.14314 3.6076L6.24264 2.70711C5.46159 1.92606 4.19526 1.92606 3.41421 2.70711C2.63316 3.48816 2.63316 4.75449 3.41421 5.53553L4.10394 6.22526C3.75453 6.76991 3.47852 7.36614 3.28988 8H2C0.895432 8 0 8.89543 0 10C0 11.1046 0.895432 12 2 12H3.28988C3.36857 12.2644 3.46247 12.5223 3.57055 12.7726L2.58579 13.7574C1.80474 14.5384 1.80474 15.8047 2.58579 16.5858C3.36683 17.3668 4.63316 17.3668 5.41421 16.5858L6.15176 15.8482C6.71611 16.2203 7.3375 16.513 8 16.7101V18C8 19.1046 8.89543 20 10 20ZM10 14C12.2091 14 14 12.2091 14 10C14 7.79086 12.2091 6 10 6C7.79086 6 6 7.79086 6 10C6 12.2091 7.79086 14 10 14Z" fill="white"/>
</svg>
