<svg width="30" height="35" viewBox="0 0 30 35" fill="none" xmlns="http://www.w3.org/2000/svg">
<path fill-rule="evenodd" clip-rule="evenodd" d="M15 35C23.2843 35 30 28.2843 30 20C30 11.7157 23.2843 5 15 5C6.71573 5 0 11.7157 0 20C0 28.2843 6.71573 35 15 35ZM13 20C13 20.639 13.2997 21.208 13.7662 21.5742C14.2169 22.169 14.9838 22.4863 15.7636 22.3262L20.6615 21.3205C21.7435 21.0984 22.4405 20.0411 22.2183 18.9591C21.9962 17.8771 20.9389 17.1801 19.8569 17.4023L17 17.9889V11C17 9.89543 16.1046 9 15 9C13.8954 9 13 9.89543 13 11V20Z" fill="#A6F3DC"/>
<rect x="10" width="10" height="4" rx="2" fill="#A6F3DC"/>
</svg>
